<svg width="65" height="22" viewBox="0 0 65 22" fill="none" xmlns="http://www.w3.org/2000/svg">
<g style="mix-blend-mode:multiply">
<rect width="65" height="22" rx="11" fill="#FEF3F2"/>
<path d="M14.0471 13.296H10.5551L9.95514 15H8.52714L11.5151 6.648H13.0991L16.0871 15H14.6471L14.0471 13.296ZM13.6631 12.18L12.3071 8.304L10.9391 12.18H13.6631ZM18.7543 9.372C18.9863 9.052 19.3023 8.792 19.7023 8.592C20.1103 8.384 20.5623 8.28 21.0583 8.28C21.6423 8.28 22.1703 8.42 22.6423 8.7C23.1143 8.98 23.4863 9.38 23.7583 9.9C24.0303 10.412 24.1663 11 24.1663 11.664C24.1663 12.328 24.0303 12.924 23.7583 13.452C23.4863 13.972 23.1103 14.38 22.6303 14.676C22.1583 14.964 21.6343 15.108 21.0583 15.108C20.5463 15.108 20.0903 15.008 19.6903 14.808C19.2983 14.608 18.9863 14.352 18.7543 14.04V15H17.3863V6.12H18.7543V9.372ZM22.7743 11.664C22.7743 11.208 22.6783 10.816 22.4863 10.488C22.3023 10.152 22.0543 9.9 21.7423 9.732C21.4383 9.556 21.1103 9.468 20.7583 9.468C20.4143 9.468 20.0863 9.556 19.7743 9.732C19.4703 9.908 19.2223 10.164 19.0303 10.5C18.8463 10.836 18.7543 11.232 18.7543 11.688C18.7543 12.144 18.8463 12.544 19.0303 12.888C19.2223 13.224 19.4703 13.48 19.7743 13.656C20.0863 13.832 20.4143 13.92 20.7583 13.92C21.1103 13.92 21.4383 13.832 21.7423 13.656C22.0543 13.472 22.3023 13.208 22.4863 12.864C22.6783 12.52 22.7743 12.12 22.7743 11.664ZM28.3871 15.108C27.7631 15.108 27.1991 14.968 26.6951 14.688C26.1911 14.4 25.7951 14 25.5071 13.488C25.2191 12.968 25.0751 12.368 25.0751 11.688C25.0751 11.016 25.2231 10.42 25.5191 9.9C25.8151 9.38 26.2191 8.98 26.7311 8.7C27.2431 8.42 27.8151 8.28 28.4471 8.28C29.0791 8.28 29.6511 8.42 30.1631 8.7C30.6751 8.98 31.0791 9.38 31.3751 9.9C31.6711 10.42 31.8191 11.016 31.8191 11.688C31.8191 12.36 31.6671 12.956 31.3631 13.476C31.0591 13.996 30.6431 14.4 30.1151 14.688C29.5951 14.968 29.0191 15.108 28.3871 15.108ZM28.3871 13.92C28.7391 13.92 29.0671 13.836 29.3711 13.668C29.6831 13.5 29.9351 13.248 30.1271 12.912C30.3191 12.576 30.4151 12.168 30.4151 11.688C30.4151 11.208 30.3231 10.804 30.1391 10.476C29.9551 10.14 29.7111 9.888 29.4071 9.72C29.1031 9.552 28.7751 9.468 28.4231 9.468C28.0711 9.468 27.7431 9.552 27.4391 9.72C27.1431 9.888 26.9071 10.14 26.7311 10.476C26.5551 10.804 26.4671 11.208 26.4671 11.688C26.4671 12.4 26.6471 12.952 27.0071 13.344C27.3751 13.728 27.8351 13.92 28.3871 13.92ZM34.5395 9.348C34.7395 9.012 35.0035 8.752 35.3315 8.568C35.6675 8.376 36.0635 8.28 36.5195 8.28V9.696H36.1715C35.6355 9.696 35.2275 9.832 34.9475 10.104C34.6755 10.376 34.5395 10.848 34.5395 11.52V15H33.1715V8.388H34.5395V9.348ZM39.373 9.504V13.164C39.373 13.412 39.429 13.592 39.541 13.704C39.661 13.808 39.861 13.86 40.141 13.86H40.981V15H39.901C39.285 15 38.813 14.856 38.485 14.568C38.157 14.28 37.993 13.812 37.993 13.164V9.504H37.213V8.388H37.993V6.744H39.373V8.388H40.981V9.504H39.373ZM48.3018 11.532C48.3018 11.78 48.2858 12.004 48.2538 12.204H43.2018C43.2418 12.732 43.4378 13.156 43.7898 13.476C44.1418 13.796 44.5738 13.956 45.0858 13.956C45.8218 13.956 46.3418 13.648 46.6458 13.032H48.1218C47.9218 13.64 47.5578 14.14 47.0298 14.532C46.5098 14.916 45.8618 15.108 45.0858 15.108C44.4538 15.108 43.8858 14.968 43.3818 14.688C42.8858 14.4 42.4938 14 42.2058 13.488C41.9258 12.968 41.7858 12.368 41.7858 11.688C41.7858 11.008 41.9218 10.412 42.1938 9.9C42.4738 9.38 42.8618 8.98 43.3578 8.7C43.8618 8.42 44.4378 8.28 45.0858 8.28C45.7098 8.28 46.2658 8.416 46.7538 8.688C47.2418 8.96 47.6218 9.344 47.8938 9.84C48.1658 10.328 48.3018 10.892 48.3018 11.532ZM46.8738 11.1C46.8658 10.596 46.6858 10.192 46.3338 9.888C45.9818 9.584 45.5458 9.432 45.0258 9.432C44.5538 9.432 44.1498 9.584 43.8138 9.888C43.4778 10.184 43.2778 10.588 43.2138 11.1H46.8738ZM49.192 11.664C49.192 11 49.328 10.412 49.6 9.9C49.88 9.388 50.256 8.992 50.728 8.712C51.208 8.424 51.74 8.28 52.324 8.28C52.756 8.28 53.18 8.376 53.596 8.568C54.02 8.752 54.356 9 54.604 9.312V6.12H55.984V15H54.604V14.004C54.38 14.324 54.068 14.588 53.668 14.796C53.276 15.004 52.824 15.108 52.312 15.108C51.736 15.108 51.208 14.964 50.728 14.676C50.256 14.38 49.88 13.972 49.6 13.452C49.328 12.924 49.192 12.328 49.192 11.664ZM54.604 11.688C54.604 11.232 54.508 10.836 54.316 10.5C54.132 10.164 53.888 9.908 53.584 9.732C53.28 9.556 52.952 9.468 52.6 9.468C52.248 9.468 51.92 9.556 51.616 9.732C51.312 9.9 51.064 10.152 50.872 10.488C50.688 10.816 50.596 11.208 50.596 11.664C50.596 12.12 50.688 12.52 50.872 12.864C51.064 13.208 51.312 13.472 51.616 13.656C51.928 13.832 52.256 13.92 52.6 13.92C52.952 13.92 53.28 13.832 53.584 13.656C53.888 13.48 54.132 13.224 54.316 12.888C54.508 12.544 54.604 12.144 54.604 11.688Z" fill="#B42318"/>
</g>
</svg>
