<svg width="47" height="47" viewBox="0 0 47 47" fill="none" xmlns="http://www.w3.org/2000/svg">
<path d="M23.0178 13.7971C17.9152 13.7971 13.7971 17.9152 13.7971 23.0178C13.7971 28.1205 17.9152 32.2386 23.0178 32.2386C28.1205 32.2386 32.2386 28.1205 32.2386 23.0178C32.2386 17.9152 28.1205 13.7971 23.0178 13.7971ZM23.0178 29.0106C19.718 29.0106 17.025 26.3177 17.025 23.0178C17.025 19.718 19.718 17.025 23.0178 17.025C26.3177 17.025 29.0106 19.718 29.0106 23.0178C29.0106 26.3177 26.3177 29.0106 23.0178 29.0106ZM32.6162 11.2705C31.4248 11.2705 30.4628 12.2326 30.4628 13.424C30.4628 14.6153 31.4248 15.5774 32.6162 15.5774C33.8076 15.5774 34.7697 14.6198 34.7697 13.424C34.77 13.1411 34.7146 12.8609 34.6065 12.5995C34.4984 12.338 34.3398 12.1005 34.1397 11.9004C33.9397 11.7004 33.7021 11.5418 33.4407 11.4337C33.1793 11.3256 32.8991 11.2702 32.6162 11.2705Z" fill="#404040"/>
<path d="M40.9918 23.0181C40.9918 20.5365 41.0143 18.0773 40.8749 15.6002C40.7355 12.7229 40.0792 10.1693 37.9752 8.06533C35.8667 5.95684 33.3176 5.30496 30.4403 5.16559C27.9587 5.02622 25.4995 5.0487 23.0224 5.0487C20.5408 5.0487 18.0816 5.02622 15.6045 5.16559C12.7272 5.30496 10.1736 5.96133 8.06964 8.06533C5.96114 10.1738 5.30926 12.7229 5.1699 15.6002C5.03053 18.0818 5.05301 20.541 5.05301 23.0181C5.05301 25.4952 5.03053 27.9589 5.1699 30.436C5.30926 33.3133 5.96564 35.8669 8.06964 37.9709C10.1781 40.0794 12.7272 40.7312 15.6045 40.8706C18.0861 41.01 20.5453 40.9875 23.0224 40.9875C25.504 40.9875 27.9632 41.01 30.4403 40.8706C33.3176 40.7312 35.8712 40.0749 37.9752 37.9709C40.0837 35.8624 40.7355 33.3133 40.8749 30.436C41.0188 27.9589 40.9918 25.4997 40.9918 23.0181ZM37.0356 33.619C36.7074 34.4372 36.3118 35.0486 35.6779 35.678C35.044 36.3119 34.437 36.7076 33.6188 37.0358C31.2541 37.9754 25.6389 37.7641 23.0179 37.7641C20.3969 37.7641 14.7773 37.9754 12.4125 37.0403C11.5943 36.7121 10.9829 36.3164 10.3535 35.6825C9.71957 35.0486 9.32394 34.4417 8.99575 33.6235C8.06064 31.2543 8.27194 25.6391 8.27194 23.0181C8.27194 20.3971 8.06064 14.7774 8.99575 12.4127C9.32394 11.5945 9.71957 10.9831 10.3535 10.3537C10.9874 9.72425 11.5943 9.32413 12.4125 8.99594C14.7773 8.06083 20.3969 8.27213 23.0179 8.27213C25.6389 8.27213 31.2586 8.06083 33.6233 8.99594C34.4415 9.32413 35.053 9.71975 35.6824 10.3537C36.3162 10.9875 36.7119 11.5945 37.0401 12.4127C37.9752 14.7774 37.7639 20.3971 37.7639 23.0181C37.7639 25.6391 37.9752 31.2543 37.0356 33.619Z" fill="#404040"/>
</svg>
