<svg width="20" height="20" viewBox="0 0 20 20" fill="none" xmlns="http://www.w3.org/2000/svg">
<g id="Frame">
<path id="Vector" d="M13.586 8.65704L9.636 4.70704C9.45384 4.51844 9.35305 4.26584 9.35533 4.00364C9.3576 3.74144 9.46277 3.49063 9.64818 3.30522C9.83359 3.11981 10.0844 3.01465 10.3466 3.01237C10.6088 3.01009 10.8614 3.11088 11.05 3.29304L16.707 8.95004C16.8002 9.04269 16.8741 9.15285 16.9246 9.27419C16.9751 9.39552 17.001 9.52563 17.001 9.65704C17.001 9.78845 16.9751 9.91856 16.9246 10.0399C16.8741 10.1612 16.8002 10.2714 16.707 10.364L11.05 16.021C10.9578 16.1166 10.8474 16.1927 10.7254 16.2451C10.6034 16.2976 10.4722 16.3251 10.3394 16.3263C10.2066 16.3274 10.0749 16.3021 9.95205 16.2519C9.82915 16.2016 9.7175 16.1273 9.62361 16.0334C9.52971 15.9395 9.45546 15.8279 9.40518 15.705C9.3549 15.5821 9.3296 15.4504 9.33075 15.3176C9.3319 15.1849 9.35949 15.0536 9.4119 14.9316C9.46431 14.8096 9.54049 14.6993 9.636 14.607L13.586 10.657H4C3.73478 10.657 3.48043 10.5517 3.29289 10.3641C3.10536 10.1766 3 9.92226 3 9.65704C3 9.39182 3.10536 9.13747 3.29289 8.94993C3.48043 8.7624 3.73478 8.65704 4 8.65704H13.586Z" fill="white"/>
</g>
</svg>
