<svg width="53" height="22" viewBox="0 0 53 22" fill="none" xmlns="http://www.w3.org/2000/svg">
    <g style="mix-blend-mode:multiply">
        <rect width="53" height="22" rx="11" fill="#FEF3F2"/>
        <path d="M14.2201 6.66V7.776H10.6801V10.236H13.4401V11.352H10.6801V15H9.31211V6.66H14.2201ZM15.0319 11.664C15.0319 11 15.1679 10.412 15.4399 9.9C15.7199 9.388 16.0959 8.992 16.5679 8.712C17.0479 8.424 17.5759 8.28 18.1519 8.28C18.6719 8.28 19.1239 8.384 19.5079 8.592C19.8999 8.792 20.2119 9.044 20.4439 9.348V8.388H21.8239V15H20.4439V14.016C20.2119 14.328 19.8959 14.588 19.4959 14.796C19.0959 15.004 18.6399 15.108 18.1279 15.108C17.5599 15.108 17.0399 14.964 16.5679 14.676C16.0959 14.38 15.7199 13.972 15.4399 13.452C15.1679 12.924 15.0319 12.328 15.0319 11.664ZM20.4439 11.688C20.4439 11.232 20.3479 10.836 20.1559 10.5C19.9719 10.164 19.7279 9.908 19.4239 9.732C19.1199 9.556 18.7919 9.468 18.4399 9.468C18.0879 9.468 17.7599 9.556 17.4559 9.732C17.1519 9.9 16.9039 10.152 16.7119 10.488C16.5279 10.816 16.4359 11.208 16.4359 11.664C16.4359 12.12 16.5279 12.52 16.7119 12.864C16.9039 13.208 17.1519 13.472 17.4559 13.656C17.7679 13.832 18.0959 13.92 18.4399 13.92C18.7919 13.92 19.1199 13.832 19.4239 13.656C19.7279 13.48 19.9719 13.224 20.1559 12.888C20.3479 12.544 20.4439 12.144 20.4439 11.688ZM24.3167 7.512C24.0687 7.512 23.8607 7.428 23.6927 7.26C23.5247 7.092 23.4407 6.884 23.4407 6.636C23.4407 6.388 23.5247 6.18 23.6927 6.012C23.8607 5.844 24.0687 5.76 24.3167 5.76C24.5567 5.76 24.7607 5.844 24.9287 6.012C25.0967 6.18 25.1807 6.388 25.1807 6.636C25.1807 6.884 25.0967 7.092 24.9287 7.26C24.7607 7.428 24.5567 7.512 24.3167 7.512ZM24.9887 8.388V15H23.6207V8.388H24.9887ZM28.1528 6.12V15H26.7848V6.12H28.1528ZM36.0088 11.532C36.0088 11.78 35.9928 12.004 35.9608 12.204H30.9088C30.9488 12.732 31.1448 13.156 31.4968 13.476C31.8488 13.796 32.2808 13.956 32.7928 13.956C33.5288 13.956 34.0488 13.648 34.3528 13.032H35.8288C35.6288 13.64 35.2648 14.14 34.7368 14.532C34.2168 14.916 33.5688 15.108 32.7928 15.108C32.1608 15.108 31.5928 14.968 31.0888 14.688C30.5928 14.4 30.2008 14 29.9128 13.488C29.6328 12.968 29.4928 12.368 29.4928 11.688C29.4928 11.008 29.6288 10.412 29.9008 9.9C30.1808 9.38 30.5688 8.98 31.0648 8.7C31.5688 8.42 32.1448 8.28 32.7928 8.28C33.4168 8.28 33.9728 8.416 34.4608 8.688C34.9488 8.96 35.3288 9.344 35.6008 9.84C35.8728 10.328 36.0088 10.892 36.0088 11.532ZM34.5808 11.1C34.5728 10.596 34.3928 10.192 34.0408 9.888C33.6888 9.584 33.2528 9.432 32.7328 9.432C32.2608 9.432 31.8568 9.584 31.5208 9.888C31.1848 10.184 30.9848 10.588 30.9208 11.1H34.5808ZM36.8991 11.664C36.8991 11 37.0351 10.412 37.3071 9.9C37.5871 9.388 37.9631 8.992 38.4351 8.712C38.9151 8.424 39.4471 8.28 40.0311 8.28C40.4631 8.28 40.8871 8.376 41.3031 8.568C41.7271 8.752 42.0631 9 42.3111 9.312V6.12H43.6911V15H42.3111V14.004C42.0871 14.324 41.7751 14.588 41.3751 14.796C40.9831 15.004 40.5311 15.108 40.0191 15.108C39.4431 15.108 38.9151 14.964 38.4351 14.676C37.9631 14.38 37.5871 13.972 37.3071 13.452C37.0351 12.924 36.8991 12.328 36.8991 11.664ZM42.3111 11.688C42.3111 11.232 42.2151 10.836 42.0231 10.5C41.8391 10.164 41.5951 9.908 41.2911 9.732C40.9871 9.556 40.6591 9.468 40.3071 9.468C39.9551 9.468 39.6271 9.556 39.3231 9.732C39.0191 9.9 38.7711 10.152 38.5791 10.488C38.3951 10.816 38.3031 11.208 38.3031 11.664C38.3031 12.12 38.3951 12.52 38.5791 12.864C38.7711 13.208 39.0191 13.472 39.3231 13.656C39.6351 13.832 39.9631 13.92 40.3071 13.92C40.6591 13.92 40.9871 13.832 41.2911 13.656C41.5951 13.48 41.8391 13.224 42.0231 12.888C42.2151 12.544 42.3111 12.144 42.3111 11.688Z" fill="#B42318"/>
    </g>
</svg>
