<svg width="67" height="22" viewBox="0 0 67 22" fill="none" xmlns="http://www.w3.org/2000/svg">
                  <g style="mix-blend-mode:multiply">
                  <rect width="67" height="22" rx="11" fill="#ECFDF3"/>
                  <path d="M14.2885 6.66V7.776H10.7485V10.236H13.5085V11.352H10.7485V15H9.38047V6.66H14.2885ZM16.2523 7.512C16.0043 7.512 15.7963 7.428 15.6283 7.26C15.4603 7.092 15.3763 6.884 15.3763 6.636C15.3763 6.388 15.4603 6.18 15.6283 6.012C15.7963 5.844 16.0043 5.76 16.2523 5.76C16.4923 5.76 16.6963 5.844 16.8643 6.012C17.0323 6.18 17.1163 6.388 17.1163 6.636C17.1163 6.884 17.0323 7.092 16.8643 7.26C16.6963 7.428 16.4923 7.512 16.2523 7.512ZM16.9243 8.388V15H15.5563V8.388H16.9243ZM22.0563 8.28C22.5763 8.28 23.0403 8.388 23.4483 8.604C23.8643 8.82 24.1883 9.14 24.4203 9.564C24.6523 9.988 24.7683 10.5 24.7683 11.1V15H23.4123V11.304C23.4123 10.712 23.2643 10.26 22.9683 9.948C22.6723 9.628 22.2683 9.468 21.7563 9.468C21.2443 9.468 20.8363 9.628 20.5323 9.948C20.2363 10.26 20.0883 10.712 20.0883 11.304V15H18.7203V8.388H20.0883V9.144C20.3123 8.872 20.5963 8.66 20.9403 8.508C21.2923 8.356 21.6643 8.28 22.0563 8.28ZM27.2093 7.512C26.9613 7.512 26.7533 7.428 26.5853 7.26C26.4173 7.092 26.3333 6.884 26.3333 6.636C26.3333 6.388 26.4173 6.18 26.5853 6.012C26.7533 5.844 26.9613 5.76 27.2093 5.76C27.4493 5.76 27.6533 5.844 27.8213 6.012C27.9893 6.18 28.0733 6.388 28.0733 6.636C28.0733 6.884 27.9893 7.092 27.8213 7.26C27.6533 7.428 27.4493 7.512 27.2093 7.512ZM27.8813 8.388V15H26.5133V8.388H27.8813ZM32.0773 15.108C31.5573 15.108 31.0893 15.016 30.6733 14.832C30.2653 14.64 29.9413 14.384 29.7013 14.064C29.4613 13.736 29.3333 13.372 29.3173 12.972H30.7333C30.7573 13.252 30.8893 13.488 31.1293 13.68C31.3773 13.864 31.6853 13.956 32.0533 13.956C32.4373 13.956 32.7333 13.884 32.9413 13.74C33.1573 13.588 33.2653 13.396 33.2653 13.164C33.2653 12.916 33.1453 12.732 32.9053 12.612C32.6733 12.492 32.3013 12.36 31.7893 12.216C31.2933 12.08 30.8893 11.948 30.5773 11.82C30.2653 11.692 29.9933 11.496 29.7613 11.232C29.5373 10.968 29.4253 10.62 29.4253 10.188C29.4253 9.836 29.5293 9.516 29.7373 9.228C29.9453 8.932 30.2413 8.7 30.6253 8.532C31.0173 8.364 31.4653 8.28 31.9693 8.28C32.7213 8.28 33.3253 8.472 33.7813 8.856C34.2453 9.232 34.4933 9.748 34.5253 10.404H33.1573C33.1333 10.108 33.0133 9.872 32.7973 9.696C32.5813 9.52 32.2893 9.432 31.9213 9.432C31.5613 9.432 31.2853 9.5 31.0933 9.636C30.9013 9.772 30.8053 9.952 30.8053 10.176C30.8053 10.352 30.8693 10.5 30.9973 10.62C31.1253 10.74 31.2813 10.836 31.4653 10.908C31.6493 10.972 31.9213 11.056 32.2813 11.16C32.7613 11.288 33.1533 11.42 33.4573 11.556C33.7693 11.684 34.0373 11.876 34.2613 12.132C34.4853 12.388 34.6013 12.728 34.6093 13.152C34.6093 13.528 34.5053 13.864 34.2973 14.16C34.0893 14.456 33.7933 14.688 33.4093 14.856C33.0333 15.024 32.5893 15.108 32.0773 15.108ZM39.5075 8.28C40.0115 8.28 40.4595 8.388 40.8515 8.604C41.2515 8.82 41.5635 9.14 41.7875 9.564C42.0195 9.988 42.1355 10.5 42.1355 11.1V15H40.7795V11.304C40.7795 10.712 40.6315 10.26 40.3355 9.948C40.0395 9.628 39.6355 9.468 39.1235 9.468C38.6115 9.468 38.2035 9.628 37.8995 9.948C37.6035 10.26 37.4555 10.712 37.4555 11.304V15H36.0875V6.12H37.4555V9.156C37.6875 8.876 37.9795 8.66 38.3315 8.508C38.6915 8.356 39.0835 8.28 39.5075 8.28ZM49.9405 11.532C49.9405 11.78 49.9245 12.004 49.8925 12.204H44.8405C44.8805 12.732 45.0765 13.156 45.4285 13.476C45.7805 13.796 46.2125 13.956 46.7245 13.956C47.4605 13.956 47.9805 13.648 48.2845 13.032H49.7605C49.5605 13.64 49.1965 14.14 48.6685 14.532C48.1485 14.916 47.5005 15.108 46.7245 15.108C46.0925 15.108 45.5245 14.968 45.0205 14.688C44.5245 14.4 44.1325 14 43.8445 13.488C43.5645 12.968 43.4245 12.368 43.4245 11.688C43.4245 11.008 43.5605 10.412 43.8325 9.9C44.1125 9.38 44.5005 8.98 44.9965 8.7C45.5005 8.42 46.0765 8.28 46.7245 8.28C47.3485 8.28 47.9045 8.416 48.3925 8.688C48.8805 8.96 49.2605 9.344 49.5325 9.84C49.8045 10.328 49.9405 10.892 49.9405 11.532ZM48.5125 11.1C48.5045 10.596 48.3245 10.192 47.9725 9.888C47.6205 9.584 47.1845 9.432 46.6645 9.432C46.1925 9.432 45.7885 9.584 45.4525 9.888C45.1165 10.184 44.9165 10.588 44.8525 11.1H48.5125ZM50.8307 11.664C50.8307 11 50.9667 10.412 51.2387 9.9C51.5187 9.388 51.8947 8.992 52.3667 8.712C52.8467 8.424 53.3787 8.28 53.9627 8.28C54.3947 8.28 54.8187 8.376 55.2347 8.568C55.6587 8.752 55.9947 9 56.2427 9.312V6.12H57.6227V15H56.2427V14.004C56.0187 14.324 55.7067 14.588 55.3067 14.796C54.9147 15.004 54.4627 15.108 53.9507 15.108C53.3747 15.108 52.8467 14.964 52.3667 14.676C51.8947 14.38 51.5187 13.972 51.2387 13.452C50.9667 12.924 50.8307 12.328 50.8307 11.664ZM56.2427 11.688C56.2427 11.232 56.1467 10.836 55.9547 10.5C55.7707 10.164 55.5267 9.908 55.2227 9.732C54.9187 9.556 54.5907 9.468 54.2387 9.468C53.8867 9.468 53.5587 9.556 53.2547 9.732C52.9507 9.9 52.7027 10.152 52.5107 10.488C52.3267 10.816 52.2347 11.208 52.2347 11.664C52.2347 12.12 52.3267 12.52 52.5107 12.864C52.7027 13.208 52.9507 13.472 53.2547 13.656C53.5667 13.832 53.8947 13.92 54.2387 13.92C54.5907 13.92 54.9187 13.832 55.2227 13.656C55.5267 13.48 55.7707 13.224 55.9547 12.888C56.1467 12.544 56.2427 12.144 56.2427 11.688Z" fill="#027A48"/>
                  </g>
                  </svg>