<svg width="69" height="22" viewBox="0 0 69 22" fill="none" xmlns="http://www.w3.org/2000/svg">
<g style="mix-blend-mode:multiply">
<rect width="69" height="22" rx="11" fill="#FFFAEB"/>
<path d="M15.0523 9.144C15.0523 9.568 14.9523 9.968 14.7523 10.344C14.5523 10.72 14.2323 11.028 13.7923 11.268C13.3523 11.5 12.7883 11.616 12.1003 11.616H10.5883V15H9.22031V6.66H12.1003C12.7403 6.66 13.2803 6.772 13.7203 6.996C14.1683 7.212 14.5003 7.508 14.7163 7.884C14.9403 8.26 15.0523 8.68 15.0523 9.144ZM12.1003 10.5C12.6203 10.5 13.0083 10.384 13.2643 10.152C13.5203 9.912 13.6483 9.576 13.6483 9.144C13.6483 8.232 13.1323 7.776 12.1003 7.776H10.5883V10.5H12.1003ZM17.725 9.348C17.925 9.012 18.189 8.752 18.517 8.568C18.853 8.376 19.249 8.28 19.705 8.28V9.696H19.357C18.821 9.696 18.413 9.832 18.133 10.104C17.861 10.376 17.725 10.848 17.725 11.52V15H16.357V8.388H17.725V9.348ZM23.8305 15.108C23.2065 15.108 22.6425 14.968 22.1385 14.688C21.6345 14.4 21.2385 14 20.9505 13.488C20.6625 12.968 20.5185 12.368 20.5185 11.688C20.5185 11.016 20.6665 10.42 20.9625 9.9C21.2585 9.38 21.6625 8.98 22.1745 8.7C22.6865 8.42 23.2585 8.28 23.8905 8.28C24.5225 8.28 25.0945 8.42 25.6065 8.7C26.1185 8.98 26.5225 9.38 26.8185 9.9C27.1145 10.42 27.2625 11.016 27.2625 11.688C27.2625 12.36 27.1105 12.956 26.8065 13.476C26.5025 13.996 26.0865 14.4 25.5585 14.688C25.0385 14.968 24.4625 15.108 23.8305 15.108ZM23.8305 13.92C24.1825 13.92 24.5105 13.836 24.8145 13.668C25.1265 13.5 25.3785 13.248 25.5705 12.912C25.7625 12.576 25.8585 12.168 25.8585 11.688C25.8585 11.208 25.7665 10.804 25.5825 10.476C25.3985 10.14 25.1545 9.888 24.8505 9.72C24.5465 9.552 24.2185 9.468 23.8665 9.468C23.5145 9.468 23.1865 9.552 22.8825 9.72C22.5865 9.888 22.3505 10.14 22.1745 10.476C21.9985 10.804 21.9105 11.208 21.9105 11.688C21.9105 12.4 22.0905 12.952 22.4505 13.344C22.8185 13.728 23.2785 13.92 23.8305 13.92ZM31.2788 8.28C31.7908 8.28 32.2428 8.384 32.6348 8.592C33.0348 8.792 33.3468 9.044 33.5708 9.348V8.388H34.9508V15.108C34.9508 15.716 34.8228 16.256 34.5668 16.728C34.3108 17.208 33.9388 17.584 33.4508 17.856C32.9708 18.128 32.3948 18.264 31.7228 18.264C30.8268 18.264 30.0828 18.052 29.4908 17.628C28.8988 17.212 28.5628 16.644 28.4828 15.924H29.8388C29.9428 16.268 30.1628 16.544 30.4988 16.752C30.8428 16.968 31.2508 17.076 31.7228 17.076C32.2748 17.076 32.7188 16.908 33.0548 16.572C33.3988 16.236 33.5708 15.748 33.5708 15.108V14.004C33.3388 14.316 33.0228 14.58 32.6228 14.796C32.2308 15.004 31.7828 15.108 31.2788 15.108C30.7028 15.108 30.1748 14.964 29.6948 14.676C29.2228 14.38 28.8468 13.972 28.5668 13.452C28.2948 12.924 28.1588 12.328 28.1588 11.664C28.1588 11 28.2948 10.412 28.5668 9.9C28.8468 9.388 29.2228 8.992 29.6948 8.712C30.1748 8.424 30.7028 8.28 31.2788 8.28ZM33.5708 11.688C33.5708 11.232 33.4748 10.836 33.2828 10.5C33.0988 10.164 32.8548 9.908 32.5508 9.732C32.2468 9.556 31.9188 9.468 31.5668 9.468C31.2148 9.468 30.8868 9.556 30.5828 9.732C30.2788 9.9 30.0308 10.152 29.8388 10.488C29.6548 10.816 29.5628 11.208 29.5628 11.664C29.5628 12.12 29.6548 12.52 29.8388 12.864C30.0308 13.208 30.2788 13.472 30.5828 13.656C30.8948 13.832 31.2228 13.92 31.5668 13.92C31.9188 13.92 32.2468 13.832 32.5508 13.656C32.8548 13.48 33.0988 13.224 33.2828 12.888C33.4748 12.544 33.5708 12.144 33.5708 11.688ZM38.1157 9.348C38.3157 9.012 38.5797 8.752 38.9077 8.568C39.2437 8.376 39.6397 8.28 40.0957 8.28V9.696H39.7477C39.2117 9.696 38.8037 9.832 38.5237 10.104C38.2517 10.376 38.1157 10.848 38.1157 11.52V15H36.7477V8.388H38.1157V9.348ZM47.4131 11.532C47.4131 11.78 47.3971 12.004 47.3651 12.204H42.3131C42.3531 12.732 42.5491 13.156 42.9011 13.476C43.2531 13.796 43.6851 13.956 44.1971 13.956C44.9331 13.956 45.4531 13.648 45.7571 13.032H47.2331C47.0331 13.64 46.6691 14.14 46.1411 14.532C45.6211 14.916 44.9731 15.108 44.1971 15.108C43.5651 15.108 42.9971 14.968 42.4931 14.688C41.9971 14.4 41.6051 14 41.3171 13.488C41.0371 12.968 40.8971 12.368 40.8971 11.688C40.8971 11.008 41.0331 10.412 41.3051 9.9C41.5851 9.38 41.9731 8.98 42.4691 8.7C42.9731 8.42 43.5491 8.28 44.1971 8.28C44.8211 8.28 45.3771 8.416 45.8651 8.688C46.3531 8.96 46.7331 9.344 47.0051 9.84C47.2771 10.328 47.4131 10.892 47.4131 11.532ZM45.9851 11.1C45.9771 10.596 45.7971 10.192 45.4451 9.888C45.0931 9.584 44.6571 9.432 44.1371 9.432C43.6651 9.432 43.2611 9.584 42.9251 9.888C42.5891 10.184 42.3891 10.588 42.3251 11.1H45.9851ZM51.1594 15.108C50.6394 15.108 50.1714 15.016 49.7554 14.832C49.3474 14.64 49.0234 14.384 48.7834 14.064C48.5434 13.736 48.4154 13.372 48.3994 12.972H49.8154C49.8394 13.252 49.9714 13.488 50.2114 13.68C50.4594 13.864 50.7674 13.956 51.1354 13.956C51.5194 13.956 51.8154 13.884 52.0234 13.74C52.2394 13.588 52.3474 13.396 52.3474 13.164C52.3474 12.916 52.2274 12.732 51.9874 12.612C51.7554 12.492 51.3834 12.36 50.8714 12.216C50.3754 12.08 49.9714 11.948 49.6594 11.82C49.3474 11.692 49.0754 11.496 48.8434 11.232C48.6194 10.968 48.5074 10.62 48.5074 10.188C48.5074 9.836 48.6114 9.516 48.8194 9.228C49.0274 8.932 49.3234 8.7 49.7074 8.532C50.0994 8.364 50.5474 8.28 51.0514 8.28C51.8034 8.28 52.4074 8.472 52.8634 8.856C53.3274 9.232 53.5754 9.748 53.6074 10.404H52.2394C52.2154 10.108 52.0954 9.872 51.8794 9.696C51.6634 9.52 51.3714 9.432 51.0034 9.432C50.6434 9.432 50.3674 9.5 50.1754 9.636C49.9834 9.772 49.8874 9.952 49.8874 10.176C49.8874 10.352 49.9514 10.5 50.0794 10.62C50.2074 10.74 50.3634 10.836 50.5474 10.908C50.7314 10.972 51.0034 11.056 51.3634 11.16C51.8434 11.288 52.2354 11.42 52.5394 11.556C52.8514 11.684 53.1194 11.876 53.3434 12.132C53.5674 12.388 53.6834 12.728 53.6914 13.152C53.6914 13.528 53.5874 13.864 53.3794 14.16C53.1714 14.456 52.8754 14.688 52.4914 14.856C52.1154 15.024 51.6714 15.108 51.1594 15.108ZM57.5695 15.108C57.0495 15.108 56.5815 15.016 56.1655 14.832C55.7575 14.64 55.4335 14.384 55.1935 14.064C54.9535 13.736 54.8255 13.372 54.8095 12.972H56.2255C56.2495 13.252 56.3815 13.488 56.6215 13.68C56.8695 13.864 57.1775 13.956 57.5455 13.956C57.9295 13.956 58.2255 13.884 58.4335 13.74C58.6495 13.588 58.7575 13.396 58.7575 13.164C58.7575 12.916 58.6375 12.732 58.3975 12.612C58.1655 12.492 57.7935 12.36 57.2815 12.216C56.7855 12.08 56.3815 11.948 56.0695 11.82C55.7575 11.692 55.4855 11.496 55.2535 11.232C55.0295 10.968 54.9175 10.62 54.9175 10.188C54.9175 9.836 55.0215 9.516 55.2295 9.228C55.4375 8.932 55.7335 8.7 56.1175 8.532C56.5095 8.364 56.9575 8.28 57.4615 8.28C58.2135 8.28 58.8175 8.472 59.2735 8.856C59.7375 9.232 59.9855 9.748 60.0175 10.404H58.6495C58.6255 10.108 58.5055 9.872 58.2895 9.696C58.0735 9.52 57.7815 9.432 57.4135 9.432C57.0535 9.432 56.7775 9.5 56.5855 9.636C56.3935 9.772 56.2975 9.952 56.2975 10.176C56.2975 10.352 56.3615 10.5 56.4895 10.62C56.6175 10.74 56.7735 10.836 56.9575 10.908C57.1415 10.972 57.4135 11.056 57.7735 11.16C58.2535 11.288 58.6455 11.42 58.9495 11.556C59.2615 11.684 59.5295 11.876 59.7535 12.132C59.9775 12.388 60.0935 12.728 60.1015 13.152C60.1015 13.528 59.9975 13.864 59.7895 14.16C59.5815 14.456 59.2855 14.688 58.9015 14.856C58.5255 15.024 58.0815 15.108 57.5695 15.108Z" fill="#B54708"/>
</g>
</svg>
