<svg width="55" height="22" viewBox="0 0 55 22" fill="none" xmlns="http://www.w3.org/2000/svg">
<g style="mix-blend-mode:multiply">
<rect width="55" height="22" rx="11" fill="#ECFDF3"/>
<path d="M13.6129 15L11.6929 11.664H10.6489V15H9.28086V6.66H12.1609C12.8009 6.66 13.3409 6.772 13.7809 6.996C14.2289 7.22 14.5609 7.52 14.7769 7.896C15.0009 8.272 15.1129 8.692 15.1129 9.156C15.1129 9.7 14.9529 10.196 14.6329 10.644C14.3209 11.084 13.8369 11.384 13.1809 11.544L15.2449 15H13.6129ZM10.6489 10.572H12.1609C12.6729 10.572 13.0569 10.444 13.3129 10.188C13.5769 9.932 13.7089 9.588 13.7089 9.156C13.7089 8.724 13.5809 8.388 13.3249 8.148C13.0689 7.9 12.6809 7.776 12.1609 7.776H10.6489V10.572ZM22.9229 11.532C22.9229 11.78 22.9069 12.004 22.8749 12.204H17.8229C17.8629 12.732 18.0589 13.156 18.4109 13.476C18.7629 13.796 19.1949 13.956 19.7069 13.956C20.4429 13.956 20.9629 13.648 21.2669 13.032H22.7429C22.5429 13.64 22.1789 14.14 21.6509 14.532C21.1309 14.916 20.4829 15.108 19.7069 15.108C19.0749 15.108 18.5069 14.968 18.0029 14.688C17.5069 14.4 17.1149 14 16.8269 13.488C16.5469 12.968 16.4069 12.368 16.4069 11.688C16.4069 11.008 16.5429 10.412 16.8149 9.9C17.0949 9.38 17.4829 8.98 17.9789 8.7C18.4829 8.42 19.0589 8.28 19.7069 8.28C20.3309 8.28 20.8869 8.416 21.3749 8.688C21.8629 8.96 22.2429 9.344 22.5149 9.84C22.7869 10.328 22.9229 10.892 22.9229 11.532ZM21.4949 11.1C21.4869 10.596 21.3069 10.192 20.9549 9.888C20.6029 9.584 20.1669 9.432 19.6469 9.432C19.1749 9.432 18.7709 9.584 18.4349 9.888C18.0989 10.184 17.8989 10.588 17.8349 11.1H21.4949ZM23.8131 11.664C23.8131 11 23.9491 10.412 24.2211 9.9C24.5011 9.388 24.8771 8.992 25.3491 8.712C25.8291 8.424 26.3571 8.28 26.9331 8.28C27.4531 8.28 27.9051 8.384 28.2891 8.592C28.6811 8.792 28.9931 9.044 29.2251 9.348V8.388H30.6051V15H29.2251V14.016C28.9931 14.328 28.6771 14.588 28.2771 14.796C27.8771 15.004 27.4211 15.108 26.9091 15.108C26.3411 15.108 25.8211 14.964 25.3491 14.676C24.8771 14.38 24.5011 13.972 24.2211 13.452C23.9491 12.924 23.8131 12.328 23.8131 11.664ZM29.2251 11.688C29.2251 11.232 29.1291 10.836 28.9371 10.5C28.7531 10.164 28.5091 9.908 28.2051 9.732C27.9011 9.556 27.5731 9.468 27.2211 9.468C26.8691 9.468 26.5411 9.556 26.2371 9.732C25.9331 9.9 25.6851 10.152 25.4931 10.488C25.3091 10.816 25.2171 11.208 25.2171 11.664C25.2171 12.12 25.3091 12.52 25.4931 12.864C25.6851 13.208 25.9331 13.472 26.2371 13.656C26.5491 13.832 26.8771 13.92 27.2211 13.92C27.5731 13.92 27.9011 13.832 28.2051 13.656C28.5091 13.48 28.7531 13.224 28.9371 12.888C29.1291 12.544 29.2251 12.144 29.2251 11.688ZM31.946 11.664C31.946 11 32.082 10.412 32.354 9.9C32.634 9.388 33.01 8.992 33.482 8.712C33.962 8.424 34.494 8.28 35.078 8.28C35.51 8.28 35.934 8.376 36.35 8.568C36.774 8.752 37.11 9 37.358 9.312V6.12H38.738V15H37.358V14.004C37.134 14.324 36.822 14.588 36.422 14.796C36.03 15.004 35.578 15.108 35.066 15.108C34.49 15.108 33.962 14.964 33.482 14.676C33.01 14.38 32.634 13.972 32.354 13.452C32.082 12.924 31.946 12.328 31.946 11.664ZM37.358 11.688C37.358 11.232 37.262 10.836 37.07 10.5C36.886 10.164 36.642 9.908 36.338 9.732C36.034 9.556 35.706 9.468 35.354 9.468C35.002 9.468 34.674 9.556 34.37 9.732C34.066 9.9 33.818 10.152 33.626 10.488C33.442 10.816 33.35 11.208 33.35 11.664C33.35 12.12 33.442 12.52 33.626 12.864C33.818 13.208 34.066 13.472 34.37 13.656C34.682 13.832 35.01 13.92 35.354 13.92C35.706 13.92 36.034 13.832 36.338 13.656C36.642 13.48 36.886 13.224 37.07 12.888C37.262 12.544 37.358 12.144 37.358 11.688ZM46.4868 8.388L42.4308 18.108H41.0148L42.3588 14.892L39.7548 8.388H41.2788L43.1388 13.428L45.0708 8.388H46.4868Z" fill="#027A48"/>
</g>
</svg>
