<svg width="45" height="40" viewBox="0 0 45 40" fill="none" xmlns="http://www.w3.org/2000/svg">
<path d="M22.6055 0.514038C10.6137 0.514038 0.89032 9.269 0.89032 20.0665C0.89032 30.864 10.6137 39.619 22.6055 39.619C34.5973 39.619 44.3207 30.864 44.3207 20.0665C44.3207 9.269 34.5973 0.514038 22.6055 0.514038ZM33.0414 15.2526C33.0559 15.4577 33.0559 15.6716 33.0559 15.8811C33.0559 22.288 27.6368 29.6682 17.7341 29.6682C14.6804 29.6682 11.8497 28.8695 9.46491 27.4947C9.90115 27.5383 10.318 27.5558 10.7639 27.5558C13.2845 27.5558 15.6014 26.7877 17.4481 25.4871C15.0827 25.4434 13.0954 24.0468 12.4168 22.1265C13.2457 22.2356 13.9921 22.2356 14.8452 22.0392C13.6273 21.8164 12.5325 21.2208 11.747 20.3536C10.9615 19.4864 10.5336 18.4011 10.5361 17.282V17.2209C11.2487 17.5832 12.0872 17.8057 12.9645 17.8363C12.227 17.3937 11.6222 16.7941 11.2036 16.0907C10.7851 15.3872 10.5658 14.6016 10.5652 13.8036C10.5652 12.9002 10.827 12.0753 11.2971 11.3595C12.649 12.858 14.3359 14.0835 16.2483 14.9565C18.1607 15.8295 20.2556 16.3304 22.3971 16.4266C21.6361 13.1315 24.3699 10.4648 27.6562 10.4648C29.2073 10.4648 30.6033 11.0497 31.5872 11.9924C32.8039 11.7873 33.9672 11.377 35.0045 10.8271C34.6022 11.9487 33.7588 12.8958 32.6391 13.4937C33.7248 13.389 34.7718 13.1184 35.7412 12.7387C35.0093 13.7076 34.0932 14.5674 33.0414 15.2526V15.2526Z" fill="#404040"/>
</svg>
