<svg width="68" height="22" viewBox="0 0 68 22" fill="none" xmlns="http://www.w3.org/2000/svg">
<g style="mix-blend-mode:multiply">
<rect width="68" height="22" rx="11" fill="#FFFAEB"/>
<path d="M19.9553 6.66L17.4833 15H15.9353L14.1833 8.688L12.3233 15L10.7873 15.012L8.42331 6.66H9.87531L11.6033 13.452L13.4753 6.66H15.0113L16.7513 13.416L18.4913 6.66H19.9553ZM20.6276 11.664C20.6276 11 20.7636 10.412 21.0356 9.9C21.3156 9.388 21.6916 8.992 22.1636 8.712C22.6436 8.424 23.1716 8.28 23.7476 8.28C24.2676 8.28 24.7196 8.384 25.1036 8.592C25.4956 8.792 25.8076 9.044 26.0396 9.348V8.388H27.4196V15H26.0396V14.016C25.8076 14.328 25.4916 14.588 25.0916 14.796C24.6916 15.004 24.2356 15.108 23.7236 15.108C23.1556 15.108 22.6356 14.964 22.1636 14.676C21.6916 14.38 21.3156 13.972 21.0356 13.452C20.7636 12.924 20.6276 12.328 20.6276 11.664ZM26.0396 11.688C26.0396 11.232 25.9436 10.836 25.7516 10.5C25.5676 10.164 25.3236 9.908 25.0196 9.732C24.7156 9.556 24.3876 9.468 24.0356 9.468C23.6836 9.468 23.3556 9.556 23.0516 9.732C22.7476 9.9 22.4996 10.152 22.3076 10.488C22.1236 10.816 22.0316 11.208 22.0316 11.664C22.0316 12.12 22.1236 12.52 22.3076 12.864C22.4996 13.208 22.7476 13.472 23.0516 13.656C23.3636 13.832 23.6916 13.92 24.0356 13.92C24.3876 13.92 24.7156 13.832 25.0196 13.656C25.3236 13.48 25.5676 13.224 25.7516 12.888C25.9436 12.544 26.0396 12.144 26.0396 11.688ZM30.5844 9.348C30.7844 9.012 31.0484 8.752 31.3764 8.568C31.7124 8.376 32.1084 8.28 32.5644 8.28V9.696H32.2164C31.6804 9.696 31.2724 9.832 30.9924 10.104C30.7204 10.376 30.5844 10.848 30.5844 11.52V15H29.2164V8.388H30.5844V9.348ZM37.1579 8.28C37.6779 8.28 38.1419 8.388 38.5499 8.604C38.9659 8.82 39.2899 9.14 39.5219 9.564C39.7539 9.988 39.8699 10.5 39.8699 11.1V15H38.5139V11.304C38.5139 10.712 38.3659 10.26 38.0699 9.948C37.7739 9.628 37.3699 9.468 36.8579 9.468C36.3459 9.468 35.9379 9.628 35.6339 9.948C35.3379 10.26 35.1899 10.712 35.1899 11.304V15H33.8219V8.388H35.1899V9.144C35.4139 8.872 35.6979 8.66 36.0419 8.508C36.3939 8.356 36.7659 8.28 37.1579 8.28ZM42.3108 7.512C42.0628 7.512 41.8548 7.428 41.6868 7.26C41.5188 7.092 41.4348 6.884 41.4348 6.636C41.4348 6.388 41.5188 6.18 41.6868 6.012C41.8548 5.844 42.0628 5.76 42.3108 5.76C42.5508 5.76 42.7548 5.844 42.9228 6.012C43.0908 6.18 43.1748 6.388 43.1748 6.636C43.1748 6.884 43.0908 7.092 42.9228 7.26C42.7548 7.428 42.5508 7.512 42.3108 7.512ZM42.9828 8.388V15H41.6148V8.388H42.9828ZM48.1149 8.28C48.6349 8.28 49.0989 8.388 49.5069 8.604C49.9229 8.82 50.2469 9.14 50.4789 9.564C50.7109 9.988 50.8269 10.5 50.8269 11.1V15H49.4709V11.304C49.4709 10.712 49.3229 10.26 49.0269 9.948C48.7309 9.628 48.3269 9.468 47.8149 9.468C47.3029 9.468 46.8949 9.628 46.5909 9.948C46.2949 10.26 46.1469 10.712 46.1469 11.304V15H44.7789V8.388H46.1469V9.144C46.3709 8.872 46.6549 8.66 46.9989 8.508C47.3509 8.356 47.7229 8.28 48.1149 8.28ZM55.2359 8.28C55.7479 8.28 56.1999 8.384 56.5919 8.592C56.9919 8.792 57.3039 9.044 57.5279 9.348V8.388H58.9079V15.108C58.9079 15.716 58.7799 16.256 58.5239 16.728C58.2679 17.208 57.8959 17.584 57.4079 17.856C56.9279 18.128 56.3519 18.264 55.6799 18.264C54.7839 18.264 54.0399 18.052 53.4479 17.628C52.8559 17.212 52.5199 16.644 52.4399 15.924H53.7959C53.8999 16.268 54.1199 16.544 54.4559 16.752C54.7999 16.968 55.2079 17.076 55.6799 17.076C56.2319 17.076 56.6759 16.908 57.0119 16.572C57.3559 16.236 57.5279 15.748 57.5279 15.108V14.004C57.2959 14.316 56.9799 14.58 56.5799 14.796C56.1879 15.004 55.7399 15.108 55.2359 15.108C54.6599 15.108 54.1319 14.964 53.6519 14.676C53.1799 14.38 52.8039 13.972 52.5239 13.452C52.2519 12.924 52.1159 12.328 52.1159 11.664C52.1159 11 52.2519 10.412 52.5239 9.9C52.8039 9.388 53.1799 8.992 53.6519 8.712C54.1319 8.424 54.6599 8.28 55.2359 8.28ZM57.5279 11.688C57.5279 11.232 57.4319 10.836 57.2399 10.5C57.0559 10.164 56.8119 9.908 56.5079 9.732C56.2039 9.556 55.8759 9.468 55.5239 9.468C55.1719 9.468 54.8439 9.556 54.5399 9.732C54.2359 9.9 53.9879 10.152 53.7959 10.488C53.6119 10.816 53.5199 11.208 53.5199 11.664C53.5199 12.12 53.6119 12.52 53.7959 12.864C53.9879 13.208 54.2359 13.472 54.5399 13.656C54.8519 13.832 55.1799 13.92 55.5239 13.92C55.8759 13.92 56.2039 13.832 56.5079 13.656C56.8119 13.48 57.0559 13.224 57.2399 12.888C57.4319 12.544 57.5279 12.144 57.5279 11.688Z" fill="#B54708"/>
</g>
</svg>
